<svg version="1.1" xmlns="http://www.w3.org/2000/svg" viewBox="0 0 589.0823059082031 562.8982162475586" width="1178.1646118164062" height="1125.7964324951172">
  <!-- svg-source:excalidraw -->
  
  <defs>
    <style class="style-fonts">
      @font-face {
        font-family: "Virgil";
        src: url("https://excalidraw.com/Virgil.woff2");
      }
      @font-face {
        font-family: "Cascadia";
        src: url("https://excalidraw.com/Cascadia.woff2");
      }
      @font-face {
        font-family: "Assistant";
        src: url("https://excalidraw.com/Assistant-Regular.woff2");
      }
    </style>
    
  </defs>
  <rect x="0" y="0" width="589.0823059082031" height="562.8982162475586" fill="#ffffff"></rect><g stroke-linecap="round" transform="translate(59.16424560546875 158.02870178222656) rotate(0 91.46875 25)"><path d="M0 0 C62.83 -0.99, 124.23 -1.13, 182.94 0 M0 0 C64.13 -0.16, 129.4 -1.11, 182.94 0 M182.94 0 C182.97 10.74, 183.8 24.37, 182.94 50 M182.94 0 C183.73 17.35, 183.24 32.99, 182.94 50 M182.94 50 C134.52 49.21, 87.8 49.22, 0 50 M182.94 50 C122.02 48.63, 60.93 48.4, 0 50 M0 50 C0.55 30.39, -0.84 12.91, 0 0 M0 50 C0.07 32.71, 0.46 16.94, 0 0" stroke="#1e1e1e" stroke-width="2" fill="none"></path></g><g transform="translate(87.79299926757812 170.52870178222656) rotate(0 62.839996337890625 12.5)"><text x="62.839996337890625" y="17.52" font-family="Virgil, Segoe UI Emoji" font-size="20px" fill="#1e1e1e" text-anchor="middle" style="white-space: pre;" direction="ltr" dominant-baseline="alphabetic">任务流1: 步骤1</text></g><g stroke-linecap="round" transform="translate(59.16424560546875 258.02870178222656) rotate(0 91.46875 25)"><path d="M0 0 C49.33 -0.27, 102.16 0.14, 182.94 0 M0 0 C57.32 -0.96, 112.53 0.52, 182.94 0 M182.94 0 C183.48 15.57, 183.62 32.82, 182.94 50 M182.94 0 C183.74 12.74, 183 27.35, 182.94 50 M182.94 50 C134.34 49.5, 84.22 50.66, 0 50 M182.94 50 C139.13 49.28, 97.72 49.42, 0 50 M0 50 C-1.07 32.31, 0.46 18.43, 0 0 M0 50 C0.54 30.29, 0.1 11.29, 0 0" stroke="#1e1e1e" stroke-width="2" fill="none"></path></g><g transform="translate(83.38300323486328 270.52870178222656) rotate(0 67.24999237060547 12.5)"><text x="67.24999237060547" y="17.52" font-family="Virgil, Segoe UI Emoji" font-size="20px" fill="#1e1e1e" text-anchor="middle" style="white-space: pre;" direction="ltr" dominant-baseline="alphabetic">任务流1: 步骤2</text></g><g stroke-linecap="round" transform="translate(65.71893310546875 358.02870178222656) rotate(0 84.9140625 25)"><path d="M0 0 C39.95 0.17, 78.01 1.01, 169.83 0 M0 0 C50.57 2.14, 102.38 1.49, 169.83 0 M169.83 0 C170.72 9.88, 169.36 22.05, 169.83 50 M169.83 0 C169.64 17.92, 169.73 34.82, 169.83 50 M169.83 50 C121.79 50.69, 71.2 49.03, 0 50 M169.83 50 C122.33 49.04, 73.94 49.52, 0 50 M0 50 C0.8 40.4, 2.02 29.52, 0 0 M0 50 C-0.1 39.61, 0.27 28.98, 0 0" stroke="#1e1e1e" stroke-width="2" fill="none"></path></g><g transform="translate(90.50299835205078 370.52870178222656) rotate(0 60.12999725341797 12.5)"><text x="60.12999725341797" y="17.52" font-family="Virgil, Segoe UI Emoji" font-size="20px" fill="#1e1e1e" text-anchor="middle" style="white-space: pre;" direction="ltr" dominant-baseline="alphabetic">任务流1: 结束</text></g><g stroke-linecap="round" transform="translate(338.10174560546875 208.02870178222656) rotate(0 91.46875 25)"><path d="M0 0 C40.73 0.73, 81.13 2.7, 182.94 0 M0 0 C37.87 -1.09, 74.16 -0.68, 182.94 0 M182.94 0 C182.51 14.29, 184.12 25.84, 182.94 50 M182.94 0 C182.47 11.26, 182.62 23.37, 182.94 50 M182.94 50 C129.09 50.07, 77.52 48.99, 0 50 M182.94 50 C135.72 49.71, 87.1 49.02, 0 50 M0 50 C1.64 39.19, -1.91 28.55, 0 0 M0 50 C0.49 36.43, 0.75 21.75, 0 0" stroke="#1e1e1e" stroke-width="2" fill="none"></path></g><g transform="translate(362.3205032348633 220.52870178222656) rotate(0 67.24999237060547 12.5)"><text x="67.24999237060547" y="17.52" font-family="Virgil, Segoe UI Emoji" font-size="20px" fill="#1e1e1e" text-anchor="middle" style="white-space: pre;" direction="ltr" dominant-baseline="alphabetic">任务流2: 步骤1</text></g><g stroke-linecap="round" transform="translate(338.10174560546875 312.02870178222656) rotate(0 91.46875 25)"><path d="M0 0 C44.31 1.94, 86.71 -0.63, 182.94 0 M0 0 C63.67 0.51, 128.79 0.58, 182.94 0 M182.94 0 C183.78 15.04, 181.35 27.86, 182.94 50 M182.94 0 C182.66 17.7, 182.67 34.64, 182.94 50 M182.94 50 C119.45 47.47, 55.83 50.44, 0 50 M182.94 50 C132.14 49.89, 82.42 50.66, 0 50 M0 50 C-2.21 34.02, -0.96 15.76, 0 0 M0 50 C0.57 33.21, -0.4 18.44, 0 0" stroke="#1e1e1e" stroke-width="2" fill="none"></path></g><g transform="translate(357.91050720214844 324.52870178222656) rotate(0 71.65998840332031 12.5)"><text x="71.65998840332031" y="17.52" font-family="Virgil, Segoe UI Emoji" font-size="20px" fill="#1e1e1e" text-anchor="middle" style="white-space: pre;" direction="ltr" dominant-baseline="alphabetic">任务流2: 步骤2</text></g><g stroke-linecap="round" transform="translate(344.65643310546875 416.02870178222656) rotate(0 84.9140625 25)"><path d="M0 0 C46.3 -2.33, 97.45 -0.78, 169.83 0 M0 0 C48.47 -0.14, 97.77 -0.82, 169.83 0 M169.83 0 C168.64 18.59, 170.94 38.09, 169.83 50 M169.83 0 C169.63 14.51, 170.21 27.74, 169.83 50 M169.83 50 C124.47 49.57, 80.18 48.94, 0 50 M169.83 50 C114.68 49.46, 61.44 50.07, 0 50 M0 50 C-0.07 33.99, 0.83 18.21, 0 0 M0 50 C-0.53 34.62, 0.31 18.44, 0 0" stroke="#1e1e1e" stroke-width="2" fill="none"></path></g><g transform="translate(365.03050231933594 428.52870178222656) rotate(0 64.53999328613281 12.5)"><text x="64.53999328613281" y="17.52" font-family="Virgil, Segoe UI Emoji" font-size="20px" fill="#1e1e1e" text-anchor="middle" style="white-space: pre;" direction="ltr" dominant-baseline="alphabetic">任务流2: 结束</text></g><g mask="url(#mask-85XzxZmeZhGHYGFPa2-SD)" stroke-linecap="round"><g transform="translate(150.93646240234375 59.881500244140625) rotate(0 0.17889404296875 47.81896209716797)"><path d="M0.64 0.47 C0.33 16.39, -0.77 78.84, -0.71 94.68 M-0.49 -0.32 C-0.53 15.78, 1.26 79.54, 1.44 95.71" stroke="#e03131" stroke-width="2" fill="none"></path></g><g transform="translate(150.93646240234375 59.881500244140625) rotate(0 0.17889404296875 47.81896209716797)"><path d="M-7.59 72.4 C-3.41 79.72, -2.25 91.75, 1.44 95.71 M-7.59 72.4 C-4.85 78.28, -2.93 84.93, 1.44 95.71" stroke="#e03131" stroke-width="2" fill="none"></path></g><g transform="translate(150.93646240234375 59.881500244140625) rotate(0 0.17889404296875 47.81896209716797)"><path d="M9.51 72.05 C6.97 79.6, 1.42 91.76, 1.44 95.71 M9.51 72.05 C7.31 78.18, 4.31 84.93, 1.44 95.71" stroke="#e03131" stroke-width="2" fill="none"></path></g></g><mask id="mask-85XzxZmeZhGHYGFPa2-SD"><rect x="0" y="0" fill="#fff" width="251.29425048828125" height="255.51942443847656"></rect><rect x="121.1153564453125" y="95.2004623413086" fill="#000" width="60" height="25" opacity="1"></rect></mask><g transform="translate(121.1153564453125 95.2004623413086) rotate(0 30.18437277268663 12.376158531783162)"><text x="30" y="17.52" font-family="Virgil, Segoe UI Emoji" font-size="20px" fill="#e03131" text-anchor="middle" style="white-space: pre;" direction="ltr" dominant-baseline="alphabetic">执行流</text></g><g stroke-linecap="round" transform="translate(10 10) rotate(0 136.61795043945312 270.80020904541016)"><path d="M0 0 C61.8 -0.53, 125.89 1.71, 273.24 0 M0 0 C106.69 1.43, 215.55 1.75, 273.24 0 M273.24 0 C274.18 160.91, 273.59 321.9, 273.24 541.6 M273.24 0 C272.77 134.86, 272.48 269.75, 273.24 541.6 M273.24 541.6 C167.11 540.06, 61.01 540.63, 0 541.6 M273.24 541.6 C170.68 542.32, 70.13 542.15, 0 541.6 M0 541.6 C0.62 372.31, 0.22 202.83, 0 0 M0 541.6 C0.12 369.79, -0.03 197.77, 0 0" stroke="#1e1e1e" stroke-width="2" fill="none"></path></g><g transform="translate(113.63916015625 21.564361572265625) rotate(0 32.709999084472656 12.5)"><text x="0" y="17.52" font-family="Virgil, Segoe UI Emoji" font-size="20px" fill="#1e1e1e" text-anchor="start" style="white-space: pre;" direction="ltr" dominant-baseline="alphabetic">任务流1</text></g><g stroke-linecap="round" transform="translate(305.8464050292969 11.297798156738281) rotate(0 136.61795043945312 270.80020904541016)"><path d="M0 0 C61.27 0.61, 119.77 0.73, 273.24 0 M0 0 C86.07 -1.12, 170.04 -1.77, 273.24 0 M273.24 0 C275.01 155.76, 274.33 310.12, 273.24 541.6 M273.24 0 C273.14 149.68, 272.59 299.6, 273.24 541.6 M273.24 541.6 C186.78 543.3, 103.01 542.94, 0 541.6 M273.24 541.6 C207.56 540.99, 142.59 541.41, 0 541.6 M0 541.6 C-0.55 345.45, 0.65 147.59, 0 0 M0 541.6 C-2.43 397.61, -2.18 253.59, 0 0" stroke="#1e1e1e" stroke-width="2" fill="none"></path></g><g transform="translate(391.03729248046875 22.709564208984375) rotate(0 37.1199951171875 12.5)"><text x="0" y="17.52" font-family="Virgil, Segoe UI Emoji" font-size="20px" fill="#1e1e1e" text-anchor="start" style="white-space: pre;" direction="ltr" dominant-baseline="alphabetic">任务流2</text></g><g stroke-linecap="round"><g transform="translate(243.86236572265625 184.2291717529297) rotate(0 47.738433837890625 26.282989501953125)"><path d="M0 0 C28.07 13.63, 56.62 31.53, 95.48 52.57 M0 0 C23.58 12.56, 47.42 26.47, 95.48 52.57" stroke="#e03131" stroke-width="2" fill="none"></path></g><g transform="translate(243.86236572265625 184.2291717529297) rotate(0 47.738433837890625 26.282989501953125)"><path d="M70.77 48.77 C78.64 48.48, 86.53 52.14, 95.48 52.57 M70.77 48.77 C76.54 49.33, 82.48 50.91, 95.48 52.57" stroke="#e03131" stroke-width="2" fill="none"></path></g><g transform="translate(243.86236572265625 184.2291717529297) rotate(0 47.738433837890625 26.282989501953125)"><path d="M78.99 33.77 C84.32 37.9, 89.81 45.94, 95.48 52.57 M78.99 33.77 C82.65 38.17, 86.51 43.54, 95.48 52.57" stroke="#e03131" stroke-width="2" fill="none"></path></g></g><mask></mask><g stroke-linecap="round"><g transform="translate(338.06890869140625 240.4398651123047) rotate(0 -47.962310791015625 22.829940795898438)"><path d="M0 0 C-24.46 10.76, -48.17 23.1, -95.92 45.66 M0 0 C-38.17 17.32, -76.66 35.86, -95.92 45.66" stroke="#e03131" stroke-width="2" fill="none"></path></g><g transform="translate(338.06890869140625 240.4398651123047) rotate(0 -47.962310791015625 22.829940795898438)"><path d="M-78.68 27.56 C-83.19 31.89, -87.03 37.27, -95.92 45.66 M-78.68 27.56 C-85.53 33.84, -92.73 41.42, -95.92 45.66" stroke="#e03131" stroke-width="2" fill="none"></path></g><g transform="translate(338.06890869140625 240.4398651123047) rotate(0 -47.962310791015625 22.829940795898438)"><path d="M-71.08 42.88 C-77.46 43.29, -83.22 44.81, -95.92 45.66 M-71.08 42.88 C-80.94 43.08, -91.17 44.57, -95.92 45.66" stroke="#e03131" stroke-width="2" fill="none"></path></g></g><mask></mask><g stroke-linecap="round"><g transform="translate(249.57415771484375 286.5396270751953) rotate(0 44.3914794921875 27.134841918945312)"><path d="M0 0 C22.23 12.63, 42.82 26.88, 88.78 54.27 M0 0 C21.15 13.51, 40.75 26, 88.78 54.27" stroke="#e03131" stroke-width="2" fill="none"></path></g><g transform="translate(249.57415771484375 286.5396270751953) rotate(0 44.3914794921875 27.134841918945312)"><path d="M64.22 49.61 C70.39 50.29, 75.27 52.4, 88.78 54.27 M64.22 49.61 C70.72 51.29, 75.6 52.41, 88.78 54.27" stroke="#e03131" stroke-width="2" fill="none"></path></g><g transform="translate(249.57415771484375 286.5396270751953) rotate(0 44.3914794921875 27.134841918945312)"><path d="M72.97 34.91 C77.1 39.22, 79.83 44.93, 88.78 54.27 M72.97 34.91 C77.44 39.9, 80.32 44.39, 88.78 54.27" stroke="#e03131" stroke-width="2" fill="none"></path></g></g><mask></mask><g stroke-linecap="round"><g transform="translate(428.5491943359375 363.6753692626953) rotate(0 -0.142913818359375 27.01434326171875)"><path d="M0 0 C1.78 15.97, 1.93 29.09, -0.29 54.03 M0 0 C-1.11 15.57, -0.03 32.09, -0.29 54.03" stroke="#e03131" stroke-width="2" fill="none"></path></g><g transform="translate(428.5491943359375 363.6753692626953) rotate(0 -0.142913818359375 27.01434326171875)"><path d="M-8.88 30.55 C-4.74 37.94, -2.08 42.42, -0.29 54.03 M-8.88 30.55 C-7.24 37.24, -3.57 44.85, -0.29 54.03" stroke="#e03131" stroke-width="2" fill="none"></path></g><g transform="translate(428.5491943359375 363.6753692626953) rotate(0 -0.142913818359375 27.01434326171875)"><path d="M8.22 30.52 C7.53 37.81, 5.35 42.31, -0.29 54.03 M8.22 30.52 C4.87 37.14, 3.55 44.76, -0.29 54.03" stroke="#e03131" stroke-width="2" fill="none"></path></g></g><mask></mask></svg>